<?xml version="1.0" encoding="utf-8"?>
<!-- Generator: Adobe Illustrator 13.0.0, SVG Export Plug-In . SVG Version: 6.00 Build 14948)  -->
<!DOCTYPE svg PUBLIC "-//W3C//DTD SVG 1.1//EN" "http://www.w3.org/Graphics/SVG/1.1/DTD/svg11.dtd">
<svg version="1.1" id="Layer_1" xmlns="http://www.w3.org/2000/svg" xmlns:xlink="http://www.w3.org/1999/xlink" x="0px" y="0px"
	 width="800px" height="600px" viewBox="0 0 800 600" enable-background="new 0 0 800 600" xml:space="preserve">
<path fill="#87C9AC" d="M498.779,178.573c0,0-125.25-0.5-180.25,14.5c0,0-23.75,3.75-65.25,86c0,0-26.5,3.5-32.75,14
	c0,0-15.25-4.25-21.25,13c0,0-4,7.75,0,20c0,0,0.194,7.25-1.778,14.25c0,0-4.222,10.5-6.472,13.75c0,0-5.75,8.25-5.5,16.75
	c0,0-2.75,27,1.75,48.5c0,0,1.25,11.5,8.25,17.5c0,0,2,21,24.5,31c0,0,36.25,16.75,63-17.5c0,0,77,6,103.75,5.5
	c0,0,3.75,5.25,29.75,3.5c0,0,8.25,35,59.5,28.25c0,0,31.5-7,35.5-51c0,0,74-19.5,81.667-19.833c0,0-0.334,1,11,1.333
	c0,0,2.583,19.25,16.083,20.75c0,0,15.25,1,21.5-5.75c0,0,9.083,0,8.083-50.667c0,0,6.167-43.333-12.333-61.833c0,0,2.5-2,3-19.5
	c0,0,0-23-7-22c0,0-9-54.333-15-67c0,0-4-12-22-14.667c0,0-33.333-11.333-62.667-15.833c0,0,1-5.167-0.333-7.833
	c0,0-1.667-1-4,6.333C529.529,180.073,510.354,178.523,498.779,178.573z"/>
<path fill="#D7EBE2" d="M617.625,223.007c0,0,6.379,25.16,5.879,35.16s0,0,0,0s-0.337,15.215-22.337,15.715
	s-0.163,1.785-0.163,1.785l-68.504-1.451c0,0-12.875,11.416-15.875,20.916l45.879-1.965c0,0,2.166-8.334,4.5-8.334
	c0,0,2-1.666,6,3.668c0,0,5-0.668,6,3.666c0,0,31.124-2.334,32.458-3c0,0-1.375-7.375,2.292-7.375c0,0,3.458-0.083,5.125,5.25
	c0,0,9.46-4.209,7.126-23.375C626.005,263.667,622.375,238.007,617.625,223.007z"/>
<path fill="#9ED3BE" d="M633.004,318.167c0,0-12.667-2.652-22.667,54.674c0,0,9.667,5.66,9.667,12.66c0,0,6.333-26.668,7-34.334
	c0,0,1.666-12.334-0.667-23c0,0,6.051-10.188,10.192-7.594l0.625-1.131C637.154,319.442,637.004,318.167,633.004,318.167z"/>
<path fill="#6DC09D" stroke="#6DC09D" d="M484.004,356.167c0,0-20.333-3.334-33,34c0,0-2.668,7-14.334,49.667
	c0,0-1,12.334-20.333,12.667c0,0,20.5,2.75,25-8.75c0,0,8.5-31.084,12.667-44.75c0,0,11.167-30.499,24.334-32.333
	c0,0,14.999-7.001,23.833,18.666c0,0,3.5,9.168,4,22.834c0,0,5.384,9.312,4.358,28.405s0,0,0,0s3.475-20.656-2.275-48.156
	C508.254,388.417,502.254,358.917,484.004,356.167z"/>
<path fill="#6DB69A" d="M374.504,383.667c0,0,21-11.5,46-5c0,0,2,1,2,6.25l-1.5,0.25c0,0,1.75-10.5-18-4.25
	C403.004,380.917,391.504,379.917,374.504,383.667z"/>
<path fill="#EFF7F3" d="M400.254,406.417c0,0-16,7.25-29.5,8.75c0,0,38.25,0,46-5.5c0,0,7-6.75,5.75-24.75"/>
<path fill="#696A6A" d="M224.504,302.167c0,0,144.582-0.5,148.166-0.5s-4,0-4,0s6.084,0.5,3.834,1.75c0,0-128.75,0.75-148,0.75
	C224.504,304.167,223.504,303.167,224.504,302.167z"/>
<path fill="#ACD9CE" d="M213.504,409.667c0,0-11.25-0.125-21.25-9.625c0,0-3.625,2.75-4.5-6
	C187.754,394.042,174.129,406.042,213.504,409.667z"/>
<path fill="#D7EBE2" d="M193.504,419.667c0,0-12.5,0.5,10,6c0,0,100.5,13.5,160,11c0,0,27.5,0.5,43-1.5c0,0,12.5-2.167-27.667-1.833
	c0,0-40.167,0.166-46.5,0c0,0-36.167-1.499-50.333-2.666c0,0-49.333-2.666-56-4.333
	C226.004,426.335,204.837,425.333,193.504,419.667z"/>
<g id="XMLID_3_">
	<g>
		<path fill="#F5F5F5" d="M429.674,331.497c-4.67,4.67-15.34,10.67-15.34,10.67c-33.33,26.67-28.83,10.71-28.83,10.71
			c5.42-15.33-54.5-13.21-54.5-13.21c11.75-4.25,20.75-8.25,20.75-8.25c-28.58,3.42-39.25-7.5-39.25-7.5
			c-25.58-19-0.83-16.42-0.83-16.42l56.86-2.33c2.21-1.23,45,15.65,59.3,22.38C431.014,329.047,429.674,331.497,429.674,331.497z"/>
	</g>
	<g>
	</g>
</g>
<path fill="#EAEAEA" d="M329.504,329.167c0,0-75.5,2-85.5-1c0,0-5.5,6,8,8.5c0,0,89.75,5.25,94,1c0,0,29-7.5-2.5-7.5
	C343.504,330.167,348.504,330.167,329.504,329.167z"/>
<g>
	<defs>
		<rect id="SVGID_1_" x="94.004" y="1.167" width="600" height="600"/>
	</defs>
	<clipPath id="SVGID_2_">
		<use xlink:href="#SVGID_1_"  overflow="visible"/>
	</clipPath>
	<path clip-path="url(#SVGID_2_)" fill="#D0E8D8" d="M610.337,372.841c0,0-77.333,13.173-84,15.416c0,0-8,13.959,1,12.601
		c0,0,53.667-10.008,71-13.849l12-1.88c0,0,12.667-1.406,4.333-8.852L610.337,372.841z"/>
	<path clip-path="url(#SVGID_2_)" fill="#D7EBE2" d="M362.004,283.501c0,0-73.667,0.332-94.5-3.334c0,0-8.044,0.098-12.75,0
		c0,0-18.083,1.571-19.75,5.619c0,0-2.488,3.215,53.256-0.369L362.004,283.501z"/>
	<path clip-path="url(#SVGID_2_)" fill="#F3F8F5" d="M501.5,190.5c0,0-8.215,31.667-15.439,57.667c0,0-6.334,27.043-7.613,28.354
		c0,0-1.95,3.193-9.447-0.248C461.503,272.833,494.497,191.5,501.5,190.5z"/>
	<path clip-path="url(#SVGID_2_)" fill="#D2EAE4" d="M459.671,279.667c0,0-70.667,9.307-78.001,9.32l-76.541,3.938
		c0,0,45.561,7.492,66.371,8.623l25.333-8C396.833,293.549,456.691,284.138,459.671,279.667z"/>
	<path clip-path="url(#SVGID_2_)" fill="#A2D4BC" d="M504.25,284.632c0,0,6.113,7.17,2.75,19.5c0,0-9.94,1.423-14.968,3.729
		c0,0-10.246,4.523-6.471,11.582c0,0,29.942,20.724-3.62,27.748c-1.292,0.271,4.178-5.024,3.62-11.691c0,0-0.901-11.333-12.563-8
		c0,0-19.925,6.334-25.127,18c0,0-12.868,16.667-14.535,23.667c0,0-3.166,15.708-3.083,33.188c0,0,0.083,13.716-13.25,15.431
		c0,0-33.57,6.141-41.118,4.094h-11.497l1.786-6.102c0,0,18.563-0.213,30.939-1.608c0.415-0.047,0.822-0.095,1.223-0.144
		c12.334-1.526,13.879-0.713,20.439-6.119c0,0,5.161-7.362,3.361-29.051c0,0-2.245-27.665,34.645-56.511
		C456.782,322.346,490.25,284.549,504.25,284.632z"/>
</g>
<path fill="#F3F8F5" d="M631.004,288.834"/>
<path fill="#7DC5A3" d="M631.776,289.519l-6.334,0.667l-12.666,2.334c0,0-22.855,4.313-34.522,3.647
	c-11.667-0.668-79.417,6.5-89.917,14.167c0,0-8,5.833,0.439,11.519l10.061,10.981l10.664,17.666l7.107,11.771l19.833-2.25
	l28.354-3.459l50.563-6.708c0,0,5.813-35.521,21.813-28.854C637.171,321.001,633.443,291.186,631.776,289.519z"/>
<path fill="#D7EBE2" d="M188.004,363.667c0,0,7,0.5,25,12.5c0,0,6.5,7,65,6.5c0,0,53.5,4.5,75.5-2c0,0,21.5-6.5,30-8.5
	c0,0,39.75-6.5,48.75-0.5c0,0,18.25-28.5,12.75-33.5c0,0-12.5-9-40.5,12.5c0,0-6.5,5-25,14.5c0,0-29.5,19-88.5,13
	c0,0-23.333-0.832-42.333-1.499c0,0-17.5,0.166-30.833-4.834C217.837,371.834,195.67,360.666,188.004,363.667z"/>
<path fill="#696A6A" d="M427.171,327.668c0,0,8.5,12,14,15.5c0,0,6.667,6.833,11,13l12.204,23.464l1.625-2.75
	c0,0-8.662-16.714-12.162-21.714c0,0-5.001-9.166-11.501-13.5c0,0-6.499-4.334-13.666-14.834L427.171,327.668z"/>
<linearGradient id="SVGID_3_" gradientUnits="userSpaceOnUse" x1="125.1196" y1="470.6094" x2="450.4238" y2="470.6094" gradientTransform="matrix(0.9999 -0.0126 0.0126 0.9999 -5.7331 3.1462)">
	<stop  offset="0" style="stop-color:#FFFFFF"/>
	<stop  offset="1" style="stop-color:#000000"/>
</linearGradient>
<path fill="url(#SVGID_3_)" d="M450.834,488.549c0,0-206.462,11.639-281.739-9.917c0,0-80.732-17.987-23.306-24.209
	c0,0,51.045-5.504,54.044-5.541c0,0,8.969,13.255,16,15.667c0,0-3.175,16.351,51.333,16.666
	C267.167,481.215,444.341,489.13,450.834,488.549z"/>
<path fill="#5B8C7C" d="M201.004,376.833c0,0-9.333-9.332-15.667-6.666c0,0-1.667,2.666,1.333,4.333
	C186.671,374.5,195.004,373.499,201.004,376.833z"/>
<path fill="#231916" d="M286.536,308.636c0,0-12.167-1.217-13.999,7.615c0,0-0.168,6.668,12.833,6.334c0,0,9.834,0.006,11.334-6.998
	C296.704,315.587,296.704,309.185,286.536,308.636z"/>
<path fill="#47778B" stroke="#47778B" d="M320.421,391.084c0,0,6.417-2.251,3.917,22.249c0,0,0,7.5-17,6c0,0-75-3-76.25-4.5
	c0,0-2.25-1.5-2.5-2.75c0,0,6.25,1.75,13.75,2s0,0,0,0l67.75,3.25c0,0,10,1.5,12.25-5s0,0,0,0l0.254-16.511
	c0,0-1.004-3.654-1.754-4.654"/>
<g>
	<defs>
		<rect id="SVGID_4_" x="94.004" y="1.167" width="600" height="600"/>
	</defs>
	<clipPath id="SVGID_5_">
		<use xlink:href="#SVGID_4_"  overflow="visible"/>
	</clipPath>
	<path clip-path="url(#SVGID_5_)" fill="#5EA2C7" d="M303.566,387.387c0,0-61.062-1.47-68.812-2.22c0,0-9-2.25-8.75,6.5v16.239
		c0,0,0.25,6.486,12,5.998c0,0,25.399,1.287,46.449,2.15l27.801,1.541c0,0,10.25,0.063,10-6.808l0.004-14.632
		c0,0,0.231-8.708-10.504-8.77H303.566z"/>
	<path clip-path="url(#SVGID_5_)" fill="#3E7EC0" stroke="#3E7EC0" d="M314.254,390.417l-73.875-2c0,0-11.125-1-11.125,2v15.086
		c0,0-0.5,5.906,6,5.285c0,0,50,2.854,64,3.117h8.5c0,0,9.667,1.492,9.583-5.998l0.001-10.49
		C317.338,397.417,317.029,390.492,314.254,390.417z"/>
	<path clip-path="url(#SVGID_5_)" fill="#97C856" stroke="#86B264" stroke-miterlimit="10" d="M243.504,393.417v12.086h4.002v-9.346
		c0,0,6.123-1.615,5.373,2.01l-4.656,0.5l4.72,6.836h4.436l5.125-5.336l5.5,7h2.75l-7-9.75l-3.375-0.125l-4.5,5.5h-1.875
		l-1.125-1.934c0,0,3.375-0.191,3.5-3.566c0,0,0.5-4-5.5-3.875H243.504z"/>
	<polygon clip-path="url(#SVGID_5_)" fill="#93C766" stroke="#86B264" points="270.754,397.792 267.504,397.792 273.291,405.417 
		270.754,410.792 274.129,410.792 282.504,397.792 278.879,397.792 276.254,402.542 274.129,402.542 	"/>
	<path clip-path="url(#SVGID_5_)" fill="#93C766" stroke="#86B264" stroke-miterlimit="10" d="M296.504,398.792h-10.25
		c0,0-2.5,0.375-1.875,3.25c0,0-0.25,2.75,1.5,3.5h6.75l-0.375-1.25h-4.5l0.125-1.375h3.53v-1.665h-3.655v-0.961h6.5l2.25,5.626
		h3.69l4.935-6.375l-3.125-0.125l-2.75,4.25h-1.5L296.504,398.792z"/>
	<path clip-path="url(#SVGID_5_)" fill="#E9F4F3" d="M278.254,311.551c0,0-2.816,2.459-2.191,6.831h1.813c0,0-0.313-1.799,0.063-3
		c0,0-0.063,1.065,1.063,3.063h2.125c0,0-1.438-2.58-0.813-4.125c0,0,0.813-2.696,2.438-2.729h-2.208l-1.515,2.029
		c0,0-0.898-0.685,0.602-2.068H278.254z"/>
	<path clip-path="url(#SVGID_5_)" fill="#E9F4F3" d="M286.313,311.569l-2.021,0.021c0,0-3.375,3.167-1.122,6.787h1.775
		C284.946,318.377,282.813,314.519,286.313,311.569z"/>
	<path clip-path="url(#SVGID_5_)" fill="#E9F4F3" d="M290.75,311.632l-2.417-0.021c0,0-2.996,3.894-1.829,6.808h1.756
		c0,0-0.689-1.856,0.032-3.037h1.042c0,0-0.25,1.583,0.625,3.042l1.833-0.042C291.792,318.382,290.583,314.34,290.75,311.632z"/>
</g>
<path fill="#578D8F" stroke="#578D8F" stroke-miterlimit="10" d="M535.144,318.834h-9.14c0,0-4.667,9.667-2,16.333h7.282
	l2.051-2.666h-6.333v-2.78l4.282-0.37v-2.676h-3.616c0,0-1-0.897,0-3.369h7.474c0,0-1.194,8.195,0,11.861h6.526
	c0,0,4.334-10.976,5.334-14.821h-3.667l-3.208,10.446h-1.875c0,0-1.25-6.416-0.5-11.958H535.144z"/>
<g>
	<defs>
		<rect id="SVGID_6_" x="93.87" y="0.918" width="600" height="600"/>
	</defs>
	<clipPath id="SVGID_7_">
		<use xlink:href="#SVGID_6_"  overflow="visible"/>
	</clipPath>
	<path clip-path="url(#SVGID_7_)" d="M509.537,276.946c0,0-2.5,6.973,4.667,17.973c0,0,3.796,2.588,8.421-5.912
		c0,0,3.875-7,5.579-9.422c0,0,3.729-5.752,3.947-4.875c0,0-18.439,3.369-19.61-0.795
		C512.541,273.915,509.802,275.769,509.537,276.946z"/>
	<path clip-path="url(#SVGID_7_)" fill="#231916" d="M311.366,198.692c0,0,110.001-14,180.501-9.5c0,0,6-8,9-8.5
		c0,0-6.5,8.5-32.5,95c0,0-168.001-7.5-211,2.5C257.367,278.192,299.685,200.077,311.366,198.692z"/>
	<path clip-path="url(#SVGID_7_)" fill="#231916" d="M519.76,184.585c0,0-5.667-5.333-13,14.667c0,0-19.333,66.333-23.333,77.666
		c0,0,114.556-0.639,125-1.333c10.573-0.703,20.074,1.963,15-24.667l-8.552-41.661c0,0-39.448-7.672-53.115-10.339
		c0,0-45.333-8.666-46.333-9C515.427,189.918,514.093,183.918,519.76,184.585z"/>
	<path clip-path="url(#SVGID_7_)" fill="#2C4453" d="M356.933,269.384l8-44c0,0,5.5-17.5-8-15.5l-26-0.158c0,0-8-1.842-12,4.158
		c0,0-7.984,6.907-12,34l-3.5,24.5C303.433,272.384,347.683,267.634,356.933,269.384z"/>
	<path clip-path="url(#SVGID_7_)" fill="#375060" d="M388.5,222.757c0,0,26.875,0.125,33.125-1.375v7.375c0,0-1.781-1.24-2.031,5.26
		c0,0-9.75,1-9.5,17.75v11c0,0-11.515-1.531-12.75,5l-15.219,0.115C382.125,267.882,384.75,226.507,388.5,222.757z"/>
	<path clip-path="url(#SVGID_7_)" fill="#355672" d="M447.738,224.873h-6c0,0-4.5,3.75-1.25,14c0,0,3.25,12.5,4.25,14
		S444.738,229.373,447.738,224.873z"/>
	<path clip-path="url(#SVGID_7_)" fill="#46666B" d="M303.433,209.459c0,0-13.229,17.126-17.896,25.126
		c0,0-19.059,27.332-16.696,41.666c0,0,10.357-1.092,13.033-1.29c2.676-0.198-3.003,0.791-6.837-1.876c0,0-4.833-3.166,1.167-13.833
		c0,0,22.167-38.167,25.667-39c0,0,11.271-4.603,6.081,5.709c-0.128,0.255-0.266,0.519-0.415,0.791
		c-0.115,0.215-0.234,0.437-0.354,0.665c-6.188,11.809-15.831,41.097-16.813,46.002l11-1.035c0,0,1.728-26.799,7.947-46.132
		c0,0,5.219-15.087,7.887-16.793c0,0-3.162-0.941-7.332-0.913C307.878,208.559,305.652,208.794,303.433,209.459z"/>
	<path clip-path="url(#SVGID_7_)" d="M284.87,257.085c0,0-8.601-2.453-1.634,17.773l2.661-0.189
		C285.897,274.669,291.539,258.326,284.87,257.085z"/>
	<path clip-path="url(#SVGID_7_)" fill="#676767" stroke="#666666" d="M192.204,373.585c0,0-2.866-3.085-3.833,6
		c0,0-1.533,7.415-0.073,17.006c0.035,0.229,0.017,0.457,0.073,0.662c0.8,2.914,3.8,3.749,4.133,2.581
		C192.504,399.834,194.037,381.919,192.204,373.585z"/>
	<path clip-path="url(#SVGID_7_)" fill="#010101" d="M302.036,339.251c0,0-79.167,0-84.167-0.832c0,0-11.833-0.668-12.666,5.166
		c0,0-2.5,16,2.333,19.666c0,0,10,11.168,28,12.334c0,0,65.167-0.666,72.833,2.166c0,0,31.5,2.041,49.166-4.646
		c0,0,29.781-8.686,28.808-22.854c0,0,2.192-9.832-30.974-10.332C355.37,339.919,311.204,339.261,302.036,339.251z"/>
	<path clip-path="url(#SVGID_7_)" fill="none" stroke="#E95816" stroke-miterlimit="10" d="M381.87,348.419
		c0,0-6.764-4.125-7.489,1.414c-0.004,0.027-0.008,0.057-0.011,0.086c-0.667,5.666-0.667,10.332-5.833,14.832
		c0,0,10.865-2.35,13.333-10.5C381.87,354.251,384.338,349.526,381.87,348.419z"/>
	<path clip-path="url(#SVGID_7_)" fill="#94CFB9" d="M512.203,272.752c0,0,3.333-20.833,14.167-22.333
		c0,0,18.463-1.871,26.046-0.453c0,0,8.958,0.08,7.12,13.453c0,0-2.203,7.629-13.333,9.333c0,0-18.833,2.667-20.833,2.833
		C525.37,275.585,512.203,277.419,512.203,272.752z"/>
	<path clip-path="url(#SVGID_7_)" fill="#2A2B2B" d="M259.745,420.044c0,0-23.125-0.625-43-3.125c0,0-18.875-3.125-21.125,0
		c0,0-7,6.125,13.5,7.875c0,0,38.083,4.625,60.917,5.457c0,0,65.333,3.834,73.333,2.834l60.833,0.166c0,0,7.334-1.5-11-7.332
		c0,0-16-2.168-32.166-2.668c0,0-48-1.5-71.167-2L259.745,420.044z"/>
	<path clip-path="url(#SVGID_7_)" fill="none" d="M528.203,195.252c0,0-24.667-11.333-16.833,41.667c0,0,1.833,31.64,0.833,35.833
		c-1,4.192,52.667,1.163,52.667,1.163s-2.26-50.33-5.963-67.996C558.907,205.919,559.765,200.608,528.203,195.252z"/>
	<path clip-path="url(#SVGID_7_)" fill="none" d="M566.87,204.252c0,0,9.667,21.265,10.667,68.132c0,0,26.566,0.416,33,0
		c0,0-4.667-51.799-9-60.799C601.537,211.585,575.874,204.247,566.87,204.252z"/>
	<path clip-path="url(#SVGID_7_)" fill="#82A3AE" d="M509.834,194.235c0,0-3.235,9.43-3.934,15.224c0,0,1.031,60.836,0,66.481
		l5.35-0.059C511.25,275.882,508.26,199.212,509.834,194.235z"/>
	<path clip-path="url(#SVGID_7_)" fill="#34545F" stroke="#34545F" stroke-miterlimit="10" d="M500.867,223.252
		c0,0,3.003,26.301,2.337,45.483c0,0,0.333,4.15-7.667,3.834c0,0-4.886,1.609-6.333-3.834v-2.811L500.867,223.252z"/>
	<path clip-path="url(#SVGID_7_)" fill="#355672" d="M529.537,222.252c0,0-1,5.667,20,3.333v22.945h-20.009
		c0,0-2.324-18.229-6.658-19.088h-10.666c0,0-2-4.523-0.834-7.19H529.537z"/>
	<path clip-path="url(#SVGID_7_)" fill="#284456" d="M597.537,223.252l5.333,41h-17.666c0,0,0-3.854-2-7.261h-4
		c0,0-0.438-15.453-3-33.739C576.204,223.252,590.294,221.569,597.537,223.252z"/>
	<path clip-path="url(#SVGID_7_)" fill="#9F9F9F" d="M212.091,341.085c0,0-7.387,2.168-3.887,18.5c0,0,5.167,8.373,19,12.168
		c0,0,19.166,3.014,34.166,0.84c0,0,23.641-2.869,33.5,0.787c0,0,30.5,5.961,50.834,0c0,0,23.791-7.461,29.291-10.211
		c0,0,16.5-12.953,4-16.227c0,0-10.875-4.785-23.625-5.154c0,0-39.75-1.285-56.625-0.703c0,0-22,0.238-40.25-0.152
		c0,0-27.625-0.514-36.125-0.639C222.37,340.294,214.71,338.958,212.091,341.085z"/>
	<path clip-path="url(#SVGID_7_)" fill="#323535" stroke="#323535" stroke-miterlimit="10" d="M309.204,343.085c0,0-4.5-0.666-11,2
		c0,0-9.168,1.668-20.667,1c0,0-5.5,0.834-14.666-2.332c0,0-4.167-2.168-12.167-1.668c0,0-21.833,0.518-29.333-0.074
		c0,0-11-2.426-10.834,8.742c0,0-1.296,9.076,6.661,13.004c0.111,0.055,0.224,0.107,0.339,0.162c8.334,3.834,12.167,6,30.5,7
		c0,0,9,0.5,13.667-1c0,0,2.833-1.666,13-1.334c0,0,17.857,0.168,20.762,1.334c0,0,6.404,2.834,16.404,2.666
		c0,0,21.5-0.166,29.666-1.166c0,0,18.834-1,29-12.5c0,0,4.668-11.334-2.166-13.334c0,0-5.5-2-12.834-2.166c0,0-17.166-0.666-23.5,0
		L309.204,343.085z"/>
	<path clip-path="url(#SVGID_7_)" fill="#CCCBCB" d="M193.189,384.858c0,0-1.644-0.879-3.82,2.81c0,0-0.267,2.284-1.668,5.605
		c0,0,1.848,4.43,4.31-1.222c0,0,0.608-3.274,1.364-3.967C193.375,388.085,193.493,383.219,193.189,384.858z"/>
</g>
<path fill="#EFF7F2" d="M558.396,253.997c0,0-8.667-1.5-24.882,3.02c0,0-13.947,3.006-14.947,12.182c0,0,5.666,2.181,29.333,0
	l8.162-0.785C556.063,268.413,563.729,262.017,558.396,253.997z"/>
<path fill="#626262" d="M548.837,262.333c0,0-5-2.5-7,3.5S551.337,263.333,548.837,262.333z"/>
<path fill="#626262" d="M560.219,260.944c0,0-10.954-1.641-8.875,2.594C551.344,263.538,561.047,267.563,560.219,260.944z"/>
<g id="XMLID_2_">
	<g>
		<path fill="#6A6A6A" d="M593.004,439.167c-14,4-89.5,24.5-89.5,24.5c-4.5,9-13,16.54-13,16.54c-12,11.54-38.5,8.96-38.5,8.96
			c-30.5,1.5-85-3-85-3c-17-0.5-95-3-95-3c-66-2-59.84-19.29-59.84-19.29c31,18,59-2,59-2c55.5,2.5,118.84-1.71,118.84-1.71l120-18
			c2.5,4,16,2.5,16,2.5c33.5-1.5,43-11,43-11c36.5,1,41.5-3.79,41.5-3.79c6,8,10,9,10,9
			C614.124,440.947,593.004,439.167,593.004,439.167z"/>
	</g>
	<g>
	</g>
</g>
<path fill="#A8A7A7" d="M281.974,450.472c0,0-7.807,9.077-10.807,12.077s128.667,0.166,128.667-2.334c0,0-9.383-2.019-13.856-3.783
	C385.978,456.432,308.943,452.276,281.974,450.472z"/>
<path fill="#626262" stroke="#626262" d="M608.25,429.382l-48.75-5.5l-49.333,11.666l0.837,7.619c0,0,22.5,8.5,59-8.5
	c0,0,32.496,2.215,39.996-2.785L608.25,429.382z"/>
<g>
	<g id="XMLID_1_">
		<g>
			<path fill="#D9DBD9" d="M421.764,382.737c1,12.5-1.5,20-1.5,20c-7.17,12.5-15.34,5.67-15.34,5.67c-3-4.5-1.5-25.17-1.5-25.17
				c0-5.16,10.811-3.83,10.811-3.83C421.544,379.077,421.764,382.737,421.764,382.737z"/>
		</g>
		<g>
			<path fill="none" stroke="#9A9999" d="M414.234,379.407c0,0-10.811-1.33-10.811,3.83c0,0-1.5,20.67,1.5,25.17
				c0,0,8.17,6.83,15.34-5.67c0,0,2.5-7.5,1.5-20C421.764,382.737,421.544,379.077,414.234,379.407z"/>
		</g>
	</g>
	<path fill="#757574" stroke="#757574" d="M466.479,285.786c0,0-60.5,6.861-72,7.68c0,0-19.5,0.32-25.5,12.32c0,0-9,14.75-9,17.75
		c0,0-4,7.618,9.25,8.184c0,0,40.5-0.851,50-2.017c0,0,8.5-0.167,16.5-9.417c0,0,6-10.25,17-10.5c0,0,11.75,0,13.75-8.25V285.786z"
		/>
	<path fill="#E8E7E7" stroke="#E8E7E7" d="M372.479,317.286c0,0-11.908-2.25-6.829,11.25c0,0,22.829,1.75,40.579-1.25
		c0,0,12.477-2.75,17.28-22.75c0,0,1.788-5.469,2.958-5.604c0,0-25.294,4.271-35.308,2.604c0,0-14.233,13.5-8.957,25
		c0,0-2.89,0.667-8.39,0.5C373.812,327.036,369.979,325.536,372.479,317.286z"/>
	<path fill="#F3F3F4" stroke="#F3F3F4" d="M461.313,291.036c0,0,2,12.333-5.667,12.667c0,0-3.833,1.166-9.333-2.334
		c0,0-5.333-4.038-11.833-1.437l-19.392,1.629c0,0-15.294,2.944-20.785,1.293c0,0-16.323-1.818-3.323-4.318c0,0,19-4.333,28-5
		C418.979,293.536,454.813,290.036,461.313,291.036z"/>
	<path fill="#908E8D" d="M218.539,329.663c0,0,5.833-14,6.833-31.334c0,0-1.301-3.806-11.317-4.902c0,0-15.976,2.079-16.163,21.574
		c0,0-1.353,13.495,7.147,14.662H218.539z"/>
	<path fill="#757574" stroke="#757574" d="M396.504,304.417c0,0-4.721-2.781-10.859,10.919c0,0,6.459,1.986,9.783-1.717
		c0,0,3.273-3.452,6.549-6.702l2.277-2.732C404.254,304.185,400.878,303.266,396.504,304.417z"/>
	<path fill="#757574" stroke="#757574" d="M411.526,305.917c0,0-8.272-5.878-4.022,3.936c0,0,3.296,1.569,4.022,1.692
		C412.254,311.667,415.817,310.065,411.526,305.917z"/>
	<path fill="#757574" stroke="#757574" d="M408.004,313.988c0,0-8.75-5.821-11.5,5.179c0,0-1.5,3.607-6.5,3.179
		c0,0-5.932,0.672-6.195-4.93c0,0-3.023,9.501,1.836,9.001c0,0,6.859-1.5,11.609-3c0,0,6.638,2.302,12.694-3.975
		C409.948,319.442,414.148,315.409,408.004,313.988z"/>
	<path fill="#FFFFFF" stroke="#FFFFFF" d="M430.254,309.853c0,0-15.112,8.733-4.095,8.564c0,0,0.095-3.596,4.095-4.797V309.853z"/>
	<path fill="#F7F9F9" d="M211.592,298.564c0,0-9.804-0.647-4.196,2.603c0,0,8.358,2.25,11.858,0S215.594,298.507,211.592,298.564z"
		/>
	<path fill="#757574" d="M211.592,302.89c0,0-12.588,9.277-2.838,21.527c0,0,7.25,2,9,0c0,0,6.922-10.825,2.435-16.557
		c0,0-1.935,1.444-4.685,0C215.504,307.86,211.592,307.215,211.592,302.89z"/>
	<path fill="#F7F9F9" d="M205.664,303.837l-0.973,0.334c0,0-7.187,16.496-3.187,19.746s5.996,5.638,11.873,4.758
		c5.876-0.881,3.627-2.238,3.627-2.238s-11.405,3.282-11.953-6.994C205.051,319.442,203.593,311.882,205.664,303.837z"/>
	<path fill="#838384" d="M412.129,379.667c0,0-3.748,1.838,0.738,7.961c0,0,2.795,10.483-0.748,16.062c0,0-0.822-1.482-4.621-8.862
		c0,0-0.606-2.354,0.29-7.932c0,0,1.774-3.938-2.203-6.163C405.585,380.732,406.254,379.167,412.129,379.667z"/>
	<path fill="#656465" d="M633.666,278.716c0,0-1.927,1.339,1,22.5c0,0,1.098,8.091,2.834,19.499c0,0,3.754-4.058,4.333-28.999
		C641.833,291.716,642.958,279.417,633.666,278.716z"/>
</g>
<path fill="#A7D2B9" d="M506.754,304.167c0,0,51.5-6.5,57.5-6.5l-1.75-4.5c0,0-37.75,1.5-43.75,2c0,0-3.5,2-6.75-3.75
	s-2.625-6-3.25-7.875s-5.879,0.34-4.754,1.215S508.504,288.917,506.754,304.167z"/>
<path fill="#C2E2D5" d="M578.379,290.709c0,0-7.125-1.708-15.834,2.458c-4.332,2.072,1.751,4.584,1.751,4.584
	s7.458-2.625,13.833-1.543C578.129,296.208,580.462,294.376,578.379,290.709z"/>
<path fill="#A2D4BF" d="M578.379,290.667c0,0-1.584-2.666-5.417-2.166c0,0-2.75-4.709-6.083-3.834c0,0-2.584,0.584-4.334,8.5
	C562.545,293.167,567.504,290.167,578.379,290.667z"/>
<path fill="#9DD2B8" d="M578.129,296.261c0,0-3.125-0.094-3.375,2.406c0,0,0.781,5.063-3.75,6.25c0,0-5.281,2.063-7.031-7.188
	C563.973,297.729,571.223,295.073,578.129,296.261z"/>
<path fill="#C3E3D6" d="M622.088,287.167c0,0-10.833-1.916-11.083,4.084c0,0,0.207,1.957,3.207,2.957c0,0,4-3.75,7.75-2
	C621.962,292.208,625.838,293.667,622.088,287.167z"/>
<path fill="#A2D4BF" d="M618.92,287.001c0,0-1.541-5.792-5.583-5.459c0,0-3.479-0.063-1.917,7.625
	C611.42,289.167,614.17,286.126,618.92,287.001z"/>
<path fill="#9DD2B8" d="M622.795,292.459c0,0-3.291,1.041-2.791,6.208c0,0,0.499,4.5-4.167,1.666c0,0-2.333-3.166-1.583-6.166
	C614.254,294.167,619.128,289.959,622.795,292.459z"/>
<path fill="#6FB8A0" d="M615.338,349.834c0,0-76,10.333-99.001,12.333l10,26.09c0,0,86.668-16.59,83.501-15.923
	C609.838,372.334,614.17,355.667,615.338,349.834z"/>
<path fill="#696A6A" d="M503.958,276.798c0,0,7.546,15.369,4.046,75.369c0,0,5-11.5,4.5,74c0,0-1.833,3.667,14.5-0.666
	c0,0,57.833-14.001,65.333-15.667c0,0,21.334-3.666,22.667-7.166c0,0,4.333-5.334,5.083-16.584c0,0-1.583,13.916-9.583,16.916
	c0,0-23.833,6-30,7.5l-34.333,8.333c0,0-21.569,6.224-30.671,6.049c-1.362-0.026-0.666-6.538-0.666-16
	c0-15.333-1.018-35.606-1.83-42.715c0,0-0.334-12.667-2.667-16c2-20.334,2-20.334,0.667-39.667c0,0.005-2.006-29.915-4.504-33.743
	L503.958,276.798z"/>
<g>
	<path fill="#161616" d="M639.334,351.883c0,0-7.573-4.55-13.051,21.603c0,0-4.143,15.986-4.643,30.153c0,0,0.333,7.75-8.5,8.125
		c0,0-15.277,3.249-20.469,5.069c0,0-1.164,0.837,10.166,1.667c0,0,4.334,18.833,16.785,20.739c0,0,16.668,1.561,21.878-4.19
		c0,0,6.167-3.166,7.833-27c0,0,2.98-27.915-1.667-46.333C647.667,361.716,643.834,353.05,639.334,351.883z"/>
	<path fill="#F8F8F8" d="M636.623,362.139c0,0,5.378-1.256,8.498,7.833c0,0,4.687,18.834,3.52,32.667c0,0,0.044,20.603-5.729,26.968
		c0,0-9.968,12.865-15.953-9.468c0,0-5.264-21.846-0.791-43.923C626.168,376.216,629.501,362.55,636.623,362.139z"/>
	<path fill="#231916" d="M486.474,385.387c0,0,22.25,6.831,24.5,51.833c0,0-0.694,28.97-19.472,42.986
		c0,0-47.472,29.898-74.5-20.293c0,0-24.972,1.941-29.751-3.5v-3.551c0,0,21.723,2.469,43.973-1.087c0,0,10.581,1.388,14.29-21.209
		c0,0,5.96-31.345,14.46-42.595C459.974,387.972,470.974,378.802,486.474,385.387z"/>
	<path fill="#F8F8F8" d="M477.141,396.472c0,0-32.5-2-33,50.167c0,0-0.667,16.666,13.167,25c0,0,21.833,17.166,37.833-13.667
		c0,0,11-19.944,2.333-41.889C497.474,416.083,494.308,400.305,477.141,396.472z"/>
	<path fill="#C8D9DB" d="M481.736,402.972c0,0-19.752-9.167-32.007,22.667c0,0-10.256,27.166,8.577,42.333
		c0,0,27.333,20,39.333-22.333C497.64,445.639,505.165,410.639,481.736,402.972z"/>
	<path fill="#D9E8E9" d="M636.307,369.805c0,0-12.333,3.5-8.667,40.667c0,0,4.334,21.5,11.667,16.333c0,0,8.167-9.333,6.833-35.667
		C646.14,391.138,645.807,368.472,636.307,369.805z"/>
	<path fill="#676767" d="M631.474,380.805c0,0-0.5,3.5,2.333,8.667c0,0,2.667,6,1.667-1.667
		C635.474,387.805,633.474,374.638,631.474,380.805z"/>
	<path fill="#676767" d="M634.641,401.805c0,0-7.833,3.167-5.333,7.5c0,0,2.189,1.5,4.261-0.667
		C633.568,408.638,638.641,402.972,634.641,401.805z"/>
	<path fill="#676767" d="M638.141,411.805c0,0-3.552,3.667-2.442,9.167c0,0,1.275,6.166,3.275,2
		C638.974,422.972,641.974,410.972,638.141,411.805z"/>
	<path fill="#676767" d="M640.974,379.161c0,0-3.433,6.944-0.883,12.545c0,0,1.716,0.932,1.716-3.568
		C641.807,388.138,642.641,377.517,640.974,379.161z"/>
	<path fill="#676767" d="M641.307,401.805c0,0-1.75,4.5,0.708,5.833c0,0,0.606,1.29,2.292,0c0,0,1.833-3,0-4.333
		C644.307,403.305,641.688,400.498,641.307,401.805z"/>
	<path fill="#231916" stroke="#231916" d="M491.502,369.222c0,0-20.21-10.706-31.335,18.66c0,0,13.632-10.344,30.344-0.377
		c0,0,9.514,8.367,14.989,21.627C505.5,409.132,507.375,383.382,491.502,369.222z"/>
	<path fill="#231916" d="M387.25,452.882c0,0-177.75-10.604-184.75-11.666c0,0,15.629,35.326,46.109,31.212
		c0,0,23.52-2.386,33.489-21.581c0,0,95.905,6.745,105.901,6.035L387.25,452.882z"/>
	<path fill="#333333" stroke="#333333" d="M225.474,445.222c0,0,7.5,19.782,28.75,7.641
		C254.224,452.862,239.974,459.222,225.474,445.222z"/>
	<path fill="#676767" d="M486,406.257c0,0-6.25,0.5-6.792,13.465c0,0,1.167,7.035,6.766,0
		C485.974,419.722,493.526,407.331,486,406.257z"/>
	<path fill="#676767" d="M494.224,437.413c0,0-9.263-4.508-9.756,2.9c0,0,0.032,6.318,10.782,5.943
		C495.25,446.257,501.5,443.257,494.224,437.413z"/>
	<path fill="#DBE4E4" d="M475.881,427.222c0,0-12.346,1.346-5.131,14.285c0,0,3.735,4.159,8.229,2.688c0,0,3.994-2.557,1.744-10.39
		C480.724,433.805,480.288,428.972,475.881,427.222z"/>
	<path fill="#676767" d="M475.881,452.862c0,0-6.393-4.573-4.907,15.109c0,0,1.776,10.66,7-1.5
		C477.974,466.472,481.5,456.257,475.881,452.862z"/>
	<path fill="#676767" d="M464.974,439.185c0,0-13.7,0.69-16.975,9.613c0,0-2.315,9.006,14.08,1.965
		C462.079,450.763,473.474,444.896,464.974,439.185z"/>
	<path fill="#D5D5D5" d="M474.864,433.805c0,0-2.689,2.55,0.085,3.608S478.756,434.388,474.864,433.805z"/>
	<path fill="#D6D6D6" d="M639.148,395.065c0,0-3.048,1.068-1.361,5.612c0,0,1.42,3.706,2.304,0
		C640.091,400.678,640.823,393.217,639.148,395.065z"/>
	<path fill="#676767" d="M468.124,427.722c0,0-11.345,0.225-11.372-13.012c0,0,0.222-7.014,7.722,0
		C464.474,414.71,475.625,424.132,468.124,427.722z"/>
	<path fill="#353535" d="M484.682,410.699c0,0-2.432-1.567-4.5,5.509c0,0-1.557,10.049,3.333,4.056
		C483.515,420.264,486.182,413.803,484.682,410.699z"/>
	<path fill="#353535" d="M461.219,442.305c0,0-3.579-2.722-8.079,1.89c0,0-8.5,8.777,1.334,7.443
		C454.474,451.638,463.464,447.972,461.219,442.305z"/>
	<path fill="#353535" d="M474.474,453.139c0,0-2.333-2.833-3.5,9.667c0,0,0,11.833,3.5,4.333
		C474.474,467.139,477.641,454.806,474.474,453.139z"/>
	<path fill="#353535" d="M489.641,436.433c0,0-7.333,0.706-3.5,6.873c0,0,3.667,2,4.833,0
		C490.974,443.306,492.808,436.727,489.641,436.433z"/>
	<path fill="#353535" d="M459.474,412.805c0,0-5,1.167,0,7.833c0,0,4.333,6.834,7.333,3.667c0,0,1.334-1.333-1-3.833
		c0,0-3.009,1.666-3.588-0.834C462.219,419.638,462.807,411.472,459.474,412.805z"/>
	<path fill="#232323" d="M205.161,441.507c0,0-7.182-1.813-9.994-5.292c0,0,5.087,40.077,52.809,35.875
		C247.976,472.09,219.848,476.792,205.161,441.507z"/>
</g>
<path fill="#355672" d="M533.5,173.132c0,0-2.75,0.375-3.971,6.941c0,0,1.695,1.691,4.333,1.5
	C533.862,181.573,535.721,173.398,533.5,173.132z"/>
</svg>
