<?xml version="1.0" encoding="utf-8"?>
<!-- Generator: Adobe Illustrator 13.0.0, SVG Export Plug-In . SVG Version: 6.00 Build 14948)  -->
<!DOCTYPE svg PUBLIC "-//W3C//DTD SVG 1.1//EN" "http://www.w3.org/Graphics/SVG/1.1/DTD/svg11.dtd">
<svg version="1.1" id="Layer_1" xmlns="http://www.w3.org/2000/svg" xmlns:xlink="http://www.w3.org/1999/xlink" x="0px" y="0px"
	 width="587.688px" height="587.694px" viewBox="0 0 587.688 587.694" enable-background="new 0 0 587.688 587.694"
	 xml:space="preserve">
<path fill="#2EC4F3" d="M293.844,587.694C131.82,587.694,0,455.877,0,293.844C0,131.82,131.82,0,293.844,0
	c162.024,0,293.845,131.82,293.845,293.844C587.688,455.877,455.868,587.694,293.844,587.694L293.844,587.694z"/>
<path fill="#A1DBF7" d="M293.844,577.308c-156.299,0-283.455-127.168-283.455-283.463c0-156.299,127.156-283.457,283.455-283.457
	c156.297,0,283.454,127.158,283.454,283.457C577.298,450.14,450.141,577.308,293.844,577.308L293.844,577.308z"/>
<radialGradient id="SVGID_1_" cx="284.3794" cy="290.6909" r="344.6115" gradientTransform="matrix(1.0367 0 0 1.0215 -3.1202 1.8831)" gradientUnits="userSpaceOnUse">
	<stop  offset="0" style="stop-color:#5CC9EC"/>
	<stop  offset="0.5495" style="stop-color:#50C7EB"/>
	<stop  offset="0.6648" style="stop-color:#4DC0E4"/>
	<stop  offset="0.8381" style="stop-color:#45ABCF"/>
	<stop  offset="0.8516" style="stop-color:#44A9CD"/>
	<stop  offset="1" style="stop-color:#FFFFFF"/>
</radialGradient>
<path fill="url(#SVGID_1_)" d="M577.197,299.73c0,154.063-126.746,278.949-283.099,278.949c-156.354,0-283.1-124.887-283.1-278.949
	c0-154.059,126.745-278.951,283.1-278.951C450.451,20.779,577.197,145.671,577.197,299.73z"/>
<path opacity="0.14" fill="#231F20" d="M562.528,386.467c15.445-47.781,20.89-99.273,4.618-160.753
	c-6.271-23.696-20.515-49.574-34.633-76.191c0,0-262.525,2.248-218.697,113.47c0,0-49.306-3.708-73.046,44.489
	c0,0-28.768-135.711-193.118,131.227c0,0,40.694,77.059,122.949,112.558c75.47,32.569,157.289,42.568,249.13-1.563
	C419.731,549.703,526.556,497.753,562.528,386.467z"/>
<g>
	<g>
		<linearGradient id="SVGID_2_" gradientUnits="userSpaceOnUse" x1="302.5693" y1="489.001" x2="309.4959" y2="114.9646">
			<stop  offset="0" style="stop-color:#E2E3E4"/>
			<stop  offset="0.0331" style="stop-color:#E8E9EA"/>
			<stop  offset="0.1078" style="stop-color:#F0F0F0"/>
			<stop  offset="0.2692" style="stop-color:#F2F2F2"/>
			<stop  offset="0.3267" style="stop-color:#F6F6F6"/>
			<stop  offset="0.5048" style="stop-color:#FDFDFD"/>
			<stop  offset="1" style="stop-color:#FFFFFF"/>
		</linearGradient>
		<path fill="url(#SVGID_2_)" d="M394.34,394.637H290.09c-7.982-1.624-16.251-6.648-16.882-20.278v-3.888
			c0.062-1.142,0.055-2.146,0-3.049v-79.398h124.493c32.523,0,58.882-22.276,58.882-49.751c0-27.479-26.358-49.752-58.882-49.752
			H273.208v-27.011c0-26.692-25.613-48.33-57.206-48.33c-31.589,0-57.198,21.638-57.198,48.33V445.81
			c0,26.694,25.608,48.332,57.198,48.332c0.847,0,1.688-0.023,2.526-0.054c0.838,0.029,1.677,0.054,2.524,0.054H394.34
			c32.515,0,58.883-22.275,58.883-49.752C453.223,416.911,426.854,394.637,394.34,394.637z"/>
	</g>
</g>
</svg>
