<?xml version="1.0" encoding="utf-8"?>
<!-- Generator: Adobe Illustrator 13.0.0, SVG Export Plug-In . SVG Version: 6.00 Build 14948)  -->
<!DOCTYPE svg PUBLIC "-//W3C//DTD SVG 1.1//EN" "http://www.w3.org/Graphics/SVG/1.1/DTD/svg11.dtd">
<svg version="1.1" id="Layer_1" xmlns="http://www.w3.org/2000/svg" xmlns:xlink="http://www.w3.org/1999/xlink" x="0px" y="0px"
	 width="585.552px" height="585.557px" viewBox="0 0 585.552 585.557" enable-background="new 0 0 585.552 585.557"
	 xml:space="preserve">
<rect fill="#E47F34" width="585.552" height="585.557"/>
<path fill="#FFFFFF" d="M169.489,471.094c0,27.62-22.391,50.013-50.013,50.013c-27.61,0-50.002-22.393-50.002-50.013
	c0-27.621,22.392-50.013,50.002-50.013C147.098,421.081,169.489,443.473,169.489,471.094"/>
<path fill="#FFFFFF" d="M261.017,521.106H335c0-143.021-115.936-258.952-258.952-258.952v73.983
	C178.203,336.138,261.017,418.952,261.017,521.106"/>
<path fill="#FFFFFF" d="M413.325,521.106h76.211c-0.682-257.455-154.326-415.72-411.938-415.72v76.196
	C293.127,181.583,412.639,305.73,413.325,521.106"/>
</svg>
